<?xml version="1.0" encoding="UTF-8"?>
<svg viewBox="0 0 458.16 515.14" xmlns="http://www.w3.org/2000/svg">
 <g fill-rule="evenodd">
  <g stroke="#000" stroke-miterlimit="10" stroke-width=".036">
   <path d="m57.315 228.89c0 112.48 74.343 203.7 166.05 203.7 91.676 0 166.02-91.224 166.02-203.7s-74.343-203.71-166.02-203.71c-91.707 9.99e-4 -166.05 91.224-166.05 203.71z"/>
   <path d="m56.848 229.25c0 110.61 73.075 200.32 163.21 200.32s163.21-89.713 163.21-200.32c0-110.64-73.076-200.35-163.21-200.35-90.137 0-163.21 89.713-163.21 200.35z" fill="#ffd4aa"/>
   <path d="m67.28 184.04c-4.741-1.208-9.512-0.99701-14.434 0.63399-5.013 1.57-11.263 3.714-15.159 9.12-4.046 5.375-8.002 14.494-8.243 23.281-0.272 8.848 3.412 21.5 6.975 28.868 3.502 7.127 7.549 11.565 14.252 14.132 6.704 2.507 15.159 2.688 25.697 0.785l-9.088-76.82z"/>
  </g>
  <path d="m64.351 266.57c7.579 2.325 12.924 1.631 16.276-2.083 3.261-3.865 4.378-8.787 3.472-20.353-1.026-11.777-6.28-38.048-9.24-48.979-3.08-10.811-5.797-16.004-8.605-15.702-0.272 3.11-0.906 5.375-2.144 6.915-1.268 1.419-2.778 1.389-5.103 2.114-2.476 0.72499-6.221 0.845-9.149 2.325-3.02 1.479-5.919 2.325-8.455 6.372-2.597 3.986-5.888 10.78-6.613 17.484-0.785 6.643 0.634 16.306 2.054 21.982 1.389 5.617 4.046 8.395 6.22 11.475 2.114 2.869 4.137 4.832 6.553 6.251 2.385 1.329 5.224 1.54 7.458 2.144 2.083 0.574 3.986-0.362 5.254 1.39 1.146 1.69 1.931 4.498 2.022 8.665z" fill="#e8ccba"/>
  <path d="m380.87 185.37c4.711-1.208 9.481-0.99699 14.435 0.634 4.952 1.57 11.173 3.714 15.158 9.12 3.926 5.375 8.002 14.494 8.273 23.281 0.091003 8.787-3.412 21.561-7.005 28.898-3.594 7.126-7.61 11.596-14.253 14.101-6.733 2.507-15.188 2.688-25.697 0.78598l9.089-76.82z" stroke="#000" stroke-miterlimit="10" stroke-width=".036"/>
  <path d="m383.83 267.9c-7.609 2.385-12.955 1.661-16.276-2.054-3.352-3.896-4.438-8.697-3.502-20.353 0.936-11.776 6.189-38.047 9.239-48.979 3.021-10.84 5.768-15.974 8.605-15.732 0.24197 3.11 0.87598 5.375 2.145 6.915 1.178 1.389 2.718 1.449 5.104 2.144 2.416 0.66499 6.1 0.84599 9.179 2.295 2.93 1.389 5.858 2.385 8.455 6.371 2.537 3.986 5.737 10.78 6.584 17.483 0.694 6.644-0.69501 16.276-2.054 22.014-1.45 5.646-4.107 8.334-6.221 11.444-2.204 2.839-4.197 4.892-6.553 6.281-2.446 1.358-5.314 1.479-7.458 2.113-2.174 0.54398-4.077-0.302-5.254 1.419-1.239 1.694-1.903 4.532-1.993 8.639z" fill="#ffd4aa"/>
  <g stroke="#000" stroke-miterlimit="10" stroke-width=".036">
   <path d="m305.48 221.55c0.98172 5.5271-5.0401 10.673-13.457 11.5-8.4139 0.82581-16.061-2.9866-17.043-8.5137-0.98172-5.5282 5.084-10.673 13.498-11.499 8.4153-0.82686 16.019 2.9855 17.002 8.5126z"/>
   <path d="m292.7 221.49c0.241 1.601-0.90604 3.11-2.537 3.321-1.6 0.21199-3.109-0.936-3.321-2.566-0.211-1.601 0.93701-3.11 2.566-3.321 1.601-0.21201 3.08 0.935 3.292 2.566z" fill="#fff"/>
   <path d="m160.17 213.86c-3.5636 4.801-0.30005 10.961 7.2566 13.739 7.5566 2.777 16.618 1.147 20.181-3.654 3.5636-4.801 0.30145-10.931-7.2566-13.739-7.5567-2.778-16.574-1.148-20.181 3.654z"/>
   <path d="m167.45 217.82c-0.755 1.449-0.211 3.231 1.238 3.986 1.45 0.78499 3.231 0.211 4.016-1.238 0.75499-1.449 0.181-3.23-1.268-3.986-1.45-0.755-3.231-0.21201-3.986 1.238z" fill="#fff"/>
   <path transform="rotate(-21.062 298.95 193.31)" d="m311.66 193.77c-2.506-1.57-7.55-3.926-11.294-5.103-3.864-1.329-8.515-2.205-11.384-2.265-3.02-0.12099-5.646 0.755-6.009 1.691-0.332 0.90599 1.54 2.929 4.106 3.745 2.566 0.634 7.127-0.242 10.78 0.634 3.533 0.90601 7.397 2.959 10.085 4.409 2.507 1.238 4.229 3.17 5.406 3.352 1.146 0.059998 1.751-1.238 1.57-2.386-0.24002-1.118-0.936-2.598-3.26-4.077z"/>
   <path transform="rotate(8.5929 163.94 190.64)" d="m151.77 189.88c2.416-1.329 7.398-2.869 11.203-3.684 3.714-0.78499 8.214-1.208 11.053-0.90599 2.747 0.302 5.314 1.389 5.615 2.446 0.21199 0.90599-1.811 2.749-4.197 3.201-2.566 0.39299-6.915-1.147-10.357-0.664-3.533 0.45299-7.368 2.083-9.995 3.14-2.658 0.96599-4.318 2.597-5.436 2.688-1.178-0.060989-1.691-1.54-1.298-2.567 0.302-1.087 0.936-2.415 3.412-3.654z"/>
   <path d="m225.44 354.1c-4.9908-0.37058-6.9822-0.25143-12.681-1.4946-5.7223-1.2567-14.924-3.3729-21.265-5.9-6.3174-2.5393-11.308-5.3305-16.32-9.2063-5.0128-3.9016-10.278-9.2059-13.528-13.902-3.2277-4.6958-5.1046-9.2852-5.7678-14.008 0.59506-0.82004 0.93845-1.7193 1.1211-2.8039 0.13719-1.124 0.22891-3.2406-0.15996-3.6379-0.48058-0.3833-1.6934 0.22516-2.312 1.3233-0.6178 1.0579-0.43512 3.4921-1.3963 5.1054-1.0991 1.5743-4.0516 3.2805-4.8756 4.4575-0.86945 1.1639-0.4351 2.1696-0.18344 2.5135 0.15996 0.29086 0.6178 0.15857 1.557-0.60889 0.93843-0.79373 2.243-2.0636 4.0054-3.9546 1.2363 4.656 3.5483 9.2721 7.0276 14.008 3.4104 4.7217 7.9198 10.119 13.802 14.206 5.8595 4.0344 14.878 7.5269 21.401 9.9076 6.5698 2.3278 12.658 3.1478 17.465 4.1001 4.6694 0.91244 6.8215 1.124 10.415 1.4022 3.593 0.22516 7.0496 0.22516 10.712 0 3.5248-0.27817 5.7004-0.48975 10.415-1.4022 4.7377-0.95273 10.85-1.7723 17.464-4.1001 6.4774-2.3812 15.496-5.8733 21.402-9.9076 5.8588-4.087 10.254-9.4836 13.802-14.206 3.5021-4.7361 5.7913-9.3522 7.0504-14.008 0.686 1.3886 1.8079 2.3278 3.3641 2.8705 1.5107 0.51602 5.7451 0.84631 5.8141 0.33075 0-0.5423-4.326-2.2752-5.8141-3.4658-1.626-1.23-2.8161-2.3545-3.4801-3.783-0.64053-1.4819 0-4.3252-0.45782-4.9604-0.59433-0.67413-2.0603 0.47659-2.5409 1.1113-0.48059 0.64786-0.48059 1.7329-0.27441 2.6983 0.16071 0.92557 0.50333 1.8253 1.1211 2.8039-0.6413 4.7221-2.5409 9.3119-5.7678 14.008-3.2504 4.6962-8.5149 10-13.528 13.902-5.0128 3.8758-10.003 6.667-16.32 9.2063-6.3409 2.5271-15.543 4.6432-21.265 5.9-5.6996 1.2432-7.691 1.124-12.681 1.4946-4.987 0.38373-2.3097 0.38373-7.3218 0z"/>
   <path d="m62.599 212.07c-1.51-0.482-3.231-1.087-5.164-0.875-2.023 0.181-4.68 0-6.462 2.355-1.842 2.415-4.198 7.609-4.288 11.505-0.151 3.714 1.782 8.516 3.835 10.779 2.023 2.175 6.221 2.719 8.395 2.205 2.144-0.72501 3.201-5.405 4.439-5.889 1.147-0.483 2.688 1.449 2.506 3.231-0.211 1.721-1.027 6.189-3.835 7.217-3.05 0.996-10.176 0.905-13.558-1.449-3.412-2.507-5.798-8.455-6.221-13.287-0.453-4.922 1.329-12.169 3.835-15.793 2.446-3.593 7.488-5.344 10.931-5.737 3.473-0.483 7.7 1.541 9.421 2.808 1.419 1.238 0.393 3.835-0.272 4.409-0.693 0.364-2.112-1.056-3.562-1.479z"/>
   <path d="m162.31 17.27c-2.054-3.201-5.375-4.5-10.297-4.016-4.983 0.483-9.361 0.543-18.964 7.036-9.753 6.492-25.485 17.846-38.47 31.616-13.045 13.708-28.717 32.912-38.983 50.155-10.358 17.211-16.91 37.413-22.225 52.209-5.315 14.585-8.425 25.667-9.21 35.119-0.846 9.421 0.604 16.336 4.348 21.077-4.228 1.57-6.824 3.533-8.123 6.009-1.238 2.445-0.936 6.371 0.544 8.516 1.389 1.963 3.805 3.14 7.579 3.533-1.238 9.089-3.11 19.809-5.948 32.612-2.96 12.803-7.429 24.126-10.841 43.633-3.442 19.507-8.183 48.254-9.21 72.261-0.936 23.945 3.442 50.397 3.231 70.267-0.513 19.688-5.073 35.994-5.405 47.287-0.333 11.264-1.39 17.635 3.805 19.567 5.194 1.69 14.222 2.446 27.086-9.028 12.864-11.717 35.964-37.444 49.281-59.729 13.166-22.405 28.083-46.533 29.26-72.743 0.876-26.271-17.454-57.796-23.312-83.282-5.888-25.425-9.482-47.86-11.354-68.243 4.379-2.295 7.157-4.771 8.667-7.67 1.389-2.929 1.51-7.187 0-9.512-1.6-2.355-4.56-3.865-9.21-4.529 16.246-11.082 29.774-22.768 41.158-35.632 11.324-13.015 18.269-20.594 26.542-41.127 8.213-20.624 15.431-47.288 22.225-81.289 5.617 18.419 16.035 35.39 31.948 52.179 15.854 16.668 31.284 28.747 62.838 47.167 31.767 18.45 72.954 38.802 125.68 62.325-5.496 1.541-8.999 3.473-10.84 6.039-1.843 2.598-1.692 6.463 0 9.029 1.66 2.415 4.801 4.257 9.753 5.525 0.12 10.479-2.657 24.127-8.666 41.642-6.161 17.574-23.464 40.342-27.087 62.717-3.563 22.285-1.269 47.167 5.949 69.754 7.186 22.527 22.104 45.566 36.839 64.229 14.766 18.57 39.497 38.953 50.912 46.14 11.142 6.915 15.037 7.941 16.244-4.5 1.087-12.651-7.458-40.19-9.209-70.267-1.721-30.347 0.87601-82.526-1.057-109.37-2.145-26.663-7.701-32.461-10.841-49.673-3.141-17.303-5.557-34.756-7.579-53.176 4.287-2.627 6.885-5.436 8.122-8.666 1.148-3.353 0.66501-8.305-1.087-10.539-1.872-2.175-5.013-3.05-9.753-2.507 3.925-14.403 2.054-31.615-5.948-52.692-8.033-21.138-17.786-50.277-41.731-72.744-24.278-22.496-70.298-48.797-101.82-61.208-31.585-12.35-66.25-13.316-85.606-12.561-19.266 0.815-28.777 6.341-29.23 17.061z" fill="#fff"/>
   <path d="m43.666 135.7c-3.956 9.271-7.247 19.115-9.753 27.087-2.627 7.851-4.469 13.92-5.405 20.081-0.936 6.19-1.057 12.139 0 16.547 1.027 4.258 1.691 7.851 5.949 9.029 4.258 1.147 10.811 0.54401 18.963-2.506 8.093-3.322 18.631-8.998 28.717-16.547 9.904-7.579 21.56-18.269 30.317-28.113 8.576-9.845 14.766-18.451 21.137-30.589 6.341-12.35 12.441-28.384 16.789-42.154 4.228-13.861 6.885-28.626 8.667-39.648 1.691-11.021 2.929-20.322 1.63-25.576-1.358-5.255-4.378-6.161-9.753-5.526-5.465 0.513-12.501 1.389-22.738 9.029-10.448 7.669-27.146 23.101-39.014 36.628-11.988 13.498-24.308 31.434-31.948 43.664-7.609 12.137-9.723 19.144-13.558 28.594z"/>
   <path d="m143.34 31.311c-7.549 6.25-26.15 22.919-39.014 39.165-12.894 16.185-27.146 38.47-37.383 57.192-10.236 18.661-19.084 42.154-23.281 53.689-4.197 11.263-2.144 13.377-1.631 14.041 0.393 0.51401 1.148-2.416 4.349-10.539 3.141-8.304 7.428-23.855 14.615-38.138 7.247-14.434 18.934-33.579 28.173-47.167 9.089-13.589 17.756-24.369 25.999-33.608 8.123-9.24 16.578-16.156 22.225-21.56 5.586-5.466 9.693-8.878 10.811-11.053 0.935-2.263 2.415-8.213-4.863-2.022z"/>
   <path d="m136.85 58.427c-5.194 5.738-15.008 18.903-22.225 32.612-7.277 13.71-11.656 32.341-20.594 48.677-9.089 16.216-27.569 39.316-32.492 47.65-4.771 8.093-0.936 6.13 3.805 0.99701 4.621-5.375 17.031-21.862 23.825-32.099 6.704-10.237 11.535-18.178 16.246-28.596 4.59-10.539 5.708-22.708 11.384-33.609 5.707-10.932 17.302-24.882 22.194-31.133 4.681-6.281 6.281-5.254 5.979-6.009-0.422-0.875-3.019-4.136-8.122 1.51z"/>
   <path d="m151.47 71.955c-0.513 4.5-4.348 19.236-6.492 25.093-2.205 5.708-6.13 9.572-6.522 9.029-0.51401-0.755 2.234-7.126 3.804-13.044 1.601-6.04 3.714-18.994 5.406-22.557 1.479-3.564 4.227-2.96 3.804 1.479z"/>
   <path d="m98.925 162.03c0 1.54 0.99699 2.748 2.235 2.748s2.234-1.208 2.234-2.748c0-1.51-0.996-2.749-2.234-2.749-1.238 0.001007-2.235 1.239-2.235 2.749z"/>
   <path d="m96.751 168.8c-1.057 2.295-4.529 6.794-7.035 9.542-2.688 2.597-7.338 6.13-8.123 6.04-0.755-0.272 1.359-3.745 3.774-7.036 2.385-3.442 8.304-11.052 10.297-12.562 1.842-1.48 2.054 1.721 1.087 4.016z"/>
   <path d="m29.051 212.46c-3.11-0.029999-5.103 0.84601-5.979 2.506-0.937 1.631-1.148 5.737 0.543 7.55 1.601 1.751 4.167 2.747 9.209 2.989 4.982 0.211 13.709 0.060989 20.594-1.51 6.885-1.722 15.431-5.164 20.05-8.002 4.499-2.869 6.704-5.949 6.493-8.546-0.423-2.597-3.201-4.982-8.667-7.036-6.07 4.076-12.381 6.975-19.507 9.059s-14.583 2.959-22.736 2.99z" fill="#f00"/>
   <g fill="#fff">
    <path d="m40.948 223c1.842 0.362 4.771 0.271 8.667-0.51401 3.774-0.84499 11.776-2.687 14.102-4.016 2.144-1.359 1.298-4.047-0.543-3.986-1.902-0.060989-6.19 3.05-10.297 3.986-4.167 0.84599-12.078 0.72499-14.071 1.51-1.964 0.755 0.27 2.536 2.142 3.02z"/>
    <path d="m66.947 213.21c0 1.51 1.026 2.747 2.265 2.747 1.208 0 2.205-1.237 2.205-2.747 0-1.511-0.997-2.748-2.205-2.748-1.238 0-2.265 1.238-2.265 2.748z"/>
   </g>
   <path d="m396.84 203.94c-14.404-5.707-31.646-13.376-52.542-23.583-21.047-10.267-49.644-23.885-72.049-37.142-22.467-13.437-45.898-28.807-61.207-42.154-15.34-13.347-22.165-25.757-29.774-37.111-7.58-11.505-13.498-21.832-15.189-30.619-1.751-8.787-0.242-16.909 4.892-21.59 5.103-4.771 12.229-6.13 25.455-6.522 13.196-0.483 34.544-0.544 53.085 4.016 18.45 4.62 38.258 14.223 56.859 23.583 18.571 9.421 39.587 21.953 53.629 32.129 13.86 9.964 21.439 18.239 29.26 27.6 7.761 9.3 11.958 18.39 16.79 28.082 4.681 9.664 8.515 16.276 11.384 29.623 2.838 13.377 4.529 29.623 5.405 49.673-2.899 2.295-6.462 3.835-10.811 4.499-4.408 0.634-9.359 0.513-15.187-0.48401z"/>
   <path d="m196.43 18.779c12.381 1.57 42.184 3.594 64.469 13.044 22.285 9.422 47.257 26.755 67.7 43.151 20.292 16.427 39.769 36.205 53.085 54.202 13.136 17.967 21.47 42.426 25.456 52.18 3.774 9.331 1.026 10.327-2.175 4.499-3.291-5.918-8.848-25.758-16.789-39.134-7.911-13.468-15.883-25.969-30.316-40.645-14.586-14.766-39.226-34.515-56.348-46.653-17.181-12.169-31.676-19.688-46.049-25.577-14.555-5.948-28.686-7.61-40.07-9.542-11.414-1.902-24.429-1.178-27.63-2.023-3.23-0.995-3.562-5.072 8.667-3.502z"/>
   <path d="m185.04 36.837c5.616 7.187 21.138 28.052 36.296 42.667 15.037 14.555 30.619 29.23 53.628 44.148 23.07 14.735 64.349 34.182 83.433 44.147 18.843 9.844 22.496 10.357 29.23 15.068 6.583 4.68 7.609 10.538 10.297 13.045 2.597 2.446 6.069 3.804 5.405 1.51-0.84601-2.416-4.047-10.992-9.724-15.581-5.646-4.621-7.459-3.624-23.855-12.019-16.638-8.606-53.115-25.335-74.735-38.651-21.651-13.377-36.327-24.792-54.173-40.645-17.996-16.004-43.12-44.54-52.541-53.689-9.36-9.029-8.817-7.127-3.261 0z"/>
   <path d="m342.67 174.32c1.963 1.782 10.418 7.489 18.964 11.535 8.455 3.896 26.271 10.629 31.434 12.048 4.862 1.238 3.383-1.298-1.631-4.016-5.162-2.778-21.197-8.968-28.173-12.048-6.885-3.11-9.632-5.285-13.015-6.523-3.593-1.268-9.421-2.808-7.579-0.996z"/>
   <path d="m334.55 170.58c0 1.51 0.996 2.748 2.234 2.748 1.237 0 2.234-1.238 2.234-2.748 0-1.54-0.99698-2.778-2.234-2.778-1.238 0-2.234 1.238-2.234 2.778z"/>
   <path d="m389.41 205.57c3.775 3.081 8.455 4.409 14.615 3.986 6.1-0.423 13.195-2.597 21.65-6.522 4.138-0.181 6.854 0.66501 8.153 2.537 1.299 1.812 1.238 6.009-0.54401 8.515-1.962 2.386-3.985 4.893-10.84 6.01-7.065 1.026-23.01 1.087-30.348 0.513-7.277-0.664-11.021-2.234-12.984-4.016-2.023-1.842-0.694-4.681 1.087-6.522 1.752-1.843 4.712-3.383 9.211-4.501z" fill="#f00"/>
   <g fill="#fff">
    <path d="m418.89 216.63c-1.751 0.84499-4.529 1.449-8.455 1.812-4.016 0.271-12.109 0.54399-14.736-0.121-2.657-0.815-2.505-3.503-0.72501-3.985 1.752-0.453 6.855 1.238 11.112 1.117 4.258-0.332 11.626-2.446 13.951-2.265 2.083 0.211 0.453 2.445-1.147 3.442z"/>
    <path d="m390.95 214.15c0.482 1.449-0.121 2.898-1.299 3.231-1.177 0.332-2.506-0.604-2.989-2.054-0.45297-1.479 0.121-2.929 1.299-3.23 1.178-0.33299 2.506 0.573 2.989 2.053z"/>
   </g>
   <path transform="rotate(-28.485 232.03 267.42)" d="m221.35 262.95c1.2802 0.85394 6.2313 3.6772 9.6699 5.2464 3.4274 1.5228 8.7278 3.4914 10.632 4.0114 1.8197 0.49231 2.0839-0.018768 0.38083-0.91943-1.7773-0.92868-7.5111-3.1012-10.632-4.4758-3.1742-1.3927-6.2526-3.0455-7.9662-3.7048-1.7034-0.6593-3.364-1.0123-2.0846-0.15774z"/>
   <path d="m343.27 187.55c0.483 1.45-0.089996 2.899-1.268 3.231-1.208 0.33299-2.537-0.604-2.989-2.053-0.483-1.45 0.089996-2.898 1.269-3.231 1.178-0.332 2.535 0.604 2.988 2.053z"/>
   <path d="m189.88 94.271c1.48 2.325 9.452 10.78 14.253 15.46 4.741 4.469 11.384 10.025 14.102 11.535 2.688 1.359 3.503-0.695 1.872-2.657-1.691-2.023-8.093-4.922-12.109-8.697-4.227-3.865-9.451-11.082-12.531-13.739-3.11-2.658-7.035-4.228-5.587-1.902z"/>
   <path d="m187.25 88.684c0.36301 1.087-0.059998 2.174-0.966 2.416-0.87599 0.242-1.902-0.423-2.235-1.54-0.362-1.087 0.061005-2.174 0.966-2.416 0.87601-0.272 1.902 0.422 2.235 1.54z"/>
   <path d="m183.48 82.645c0.332 1.117-0.090012 2.204-0.966 2.446-0.90601 0.242-1.902-0.453-2.265-1.54-0.362-1.117 0.089996-2.204 0.966-2.446 0.90599-0.242 1.903 0.453 2.265 1.54z"/>
   <path d="m389.41 226.99c7.881 0.302 14.766 0.302 21.107 0 6.311-0.362 11.535-1.027 16.245-1.993 1.147 20.353 2.96 37.474 5.436 52.179 2.507 14.556 6.976 20.323 9.21 35.119 2.114 14.917 2.688 37.232 3.231 53.206 0.423 15.763-0.96701 25.938-0.54401 41.127 0.33301 15.189 1.238 34.727 2.718 49.19 1.42 14.343 4.801 27.509 5.948 36.114 1.117 8.364 2.507 12.441 0.54398 14.556-2.174 2.083-5.919 2.657-12.984-2.023-7.187-4.892-19.266-16.004-29.261-26.573-10.086-10.599-21.046-22.073-30.316-36.628-9.331-14.735-20.322-32.763-24.942-50.699-4.681-18.027-4.258-40.524-2.688-56.196 1.54-15.731 7.64-26.663 11.896-37.111 4.138-10.479 9.331-16.396 13.016-25.093 3.684-8.788 6.613-19.567 8.666-27.086 1.872-7.581 2.779-13.53 2.718-18.089z"/>
   <path d="m396.45 242.05c-1.51 5.919-2.114 20.595-5.436 34.122-3.473 13.377-12.29 29.563-15.158 45.657-2.93 15.943-4.862 32.068-2.175 49.673 2.718 17.665 9.995 37.775 17.877 55.199 7.79 17.241 23.281 40.825 28.173 47.68 4.65 6.613 3.412-0.51398 0-7.519-3.624-7.217-14.403-22.255-20.563-34.636-6.221-12.471-12.049-25.516-15.733-39.135-3.714-13.739-6.008-28.988-5.948-42.153 0.061005-13.287 3.624-25.094 6.492-36.115 2.839-10.931 7.67-20.322 10.298-29.109 2.415-8.817 3.925-16.245 4.892-23.583 1.026-7.55 1.419-17.122 1.057-20.564-0.60501-3.382-2.175-5.315-3.776 0.483z"/>
   <path d="m411.06 232.54c-0.966 7.036 0.604 29.23-0.543 48.163-1.328 18.843-8.877 43.12-7.036 64.228 1.873 20.987 13.77 40.464 17.877 61.208 4.016 20.685 4.137 50.972 5.948 62.205 1.66 11.021 4.047 11.505 4.348 4.016 0.15201-7.699-0.875-35.147-2.718-49.159-1.871-14.071-4.619-21.138-8.122-34.122-3.684-13.045-11.323-28.596-13.015-43.15-1.601-14.615 2.053-32.975 3.261-43.664 1.058-10.72 2.296-9.481 3.262-20.05 0.966-10.69 2.536-34.817 2.145-43.151-0.63501-8.397-4.379-13.439-5.407-6.524z"/>
   <path d="m360.7 392.1c0.96701 4.5 5.254 16.035 8.667 23.07 3.291 6.854 8.575 15.551 10.84 18.058 2.204 2.355 3.774 1.146 2.144-3.503-1.751-4.711-9.391-17.212-12.44-24.097-3.14-6.976-4.469-14.797-5.979-17.061-1.631-2.295-4.107-0.966-3.232 3.533z"/>
   <path d="m361.15 380.23c0.483 1.45-0.091003 2.898-1.268 3.231-1.209 0.332-2.537-0.604-2.99-2.054-0.483-1.479 0.091003-2.929 1.268-3.231 1.179-0.332 2.537 0.574 2.99 2.054z"/>
   <path d="m32.977 229.01c7.972 0.966 15.038 0.966 21.651 0 6.583-1.027 12.169-2.99 17.333-6.01 2.385 22.647 5.526 42.697 9.753 61.208 4.197 18.42 10.931 35.571 15.189 48.677 4.137 13.045 9.059 18.088 9.753 29.109 0.604 10.931-0.966 22.346-5.979 36.115-5.254 13.709-15.4 31.373-24.369 45.656-8.999 14.253-19.809 28.656-28.717 39.135-9.059 10.418-17.574 18.027-24.368 22.587-6.825 4.318-12.562 6.462-15.702 3.654-3.11-2.93-3.05-12.199-2.718-20.595 0.241-8.425 3.745-17.393 4.348-29.592 0.483-12.352-0.573-28.959-1.087-43.665-0.574-14.766-3.322-26.452-2.174-44.146 1.147-17.876 5.435-44.238 8.666-61.722 3.05-17.423 6.613-28.717 9.753-42.154 3.111-13.587 5.889-26.028 8.668-38.257z"/>
   <path d="m38.381 237.16c-1.721 10.659-2.929 44.237-5.948 64.741-3.141 20.321-9.331 36.387-11.928 56.709-2.537 20.353-3.382 45.959-3.231 64.228 0.121 17.967 4.137 31.344 3.774 43.634-0.543 12.26-6.009 25.123-6.492 29.622-0.483 4.288 2.174 0.121 3.775-3.533 1.57-3.864 4.589-11.263 5.435-18.57 0.665-7.338-0.393-14.132-1.087-24.579-0.785-10.509-3.654-21.53-3.261-37.625 0.302-16.276 2.778-41.701 5.435-58.702s7.761-30.015 10.297-42.667c2.416-12.683 3.08-21.229 4.318-33.096 1.208-12.018 2.778-31.374 2.718-38.138-0.241-6.675-2.204-12.594-3.805-2.024z"/>
   <path d="m56.801 237.67c-1.691 8.605-5.888 33.88-4.318 50.186 1.54 16.216 10.357 32.311 13.528 46.654 3.11 14.252 6.764 23.825 4.892 38.621-2.053 14.705-10.961 31.646-16.819 49.189-5.979 17.574-16.035 46.261-18.39 55.199-2.325 8.666 1.057 4.047 4.318-3.02 3.261-7.338 8.636-23.04 14.615-39.648 5.858-16.758 17.121-42.969 20.05-59.185 2.778-16.245-0.333-23.463-3.261-37.142-3.11-13.679-12.29-30.68-14.615-44.146-2.295-13.559 0.121-26.422 1.087-36.146 0.937-9.783 4.409-18.058 4.349-21.561-0.242-3.44-3.835-7.607-5.436 0.99901z"/>
   <path d="m95.815 392.73c-2.325 2.929-7.7 13.859-13.559 24.066-6.069 10.085-18.571 29.895-21.651 36.114-2.959 6.04 0.091 5.043 3.775 0.51401 3.624-4.681 12.531-18.541 17.876-27.6 5.284-9.028 11.203-20.594 13.559-26.09 2.235-5.556 2.235-9.903 0-7.004z"/>
   <path d="m101.16 384.73c0.453 1.479-0.121 2.93-1.299 3.231-1.178 0.332-2.537-0.574-2.989-2.053-0.483-1.45 0.089996-2.899 1.298-3.231 1.178-0.332 2.507 0.604 2.99 2.053z"/>
   <path d="m57.828 461c0.453 1.449-0.121 2.898-1.298 3.231-1.178 0.33099-2.537-0.604-2.989-2.054-0.483-1.449 0.09-2.899 1.268-3.23 1.207-0.332 2.536 0.604 3.019 2.053z"/>
  </g>
 </g>
 <g fill="none" stroke="#000" stroke-dasharray="null" stroke-linecap="round" stroke-linejoin="null" stroke-width=".036">
  <polyline points="252.84 448.86 253.84 448.86 253.84 449.86 255.84 449.86 255.84 450.86 256.84 450.86 257.84 450.86 257.84 451.86 258.84 452.86 259.84 452.86 260.84 453.86 261.84 453.86 263.84 454.86 264.84 454.86 265.84 455.86 265.84 456.86 267.84 456.86 268.84 457.86 269.84 458.86 270.84 459.86 271.84 459.86 272.84 459.86 272.84 459.86 273.84 460.86 274.84 460.86 275.84 461.86 275.84 461.86" opacity=".5"/>
  <polyline points="119.84 440.86 119.84 441.86 119.84 443.86 119.84 445.86 119.84 447.86 119.84 450.86 119.84 452.86 119.84 454.86 119.84 456.86 119.84 458.86 119.84 459.86 120.84 461.86 121.84 461.86 122.84 461.86 122.84 462.86 123.84 463.86 124.84 464.86 125.84 464.86 127.84 466.86 128.84 467.86 130.84 468.86 131.84 468.86 133.84 469.86 135.84 470.86 137.84 472.86 139.84 473.86 141.84 475.86 142.84 477.86 143.84 477.86 145.84 478.86 145.84 478.86 145.84 479.86" opacity=".5"/>
 </g>
</svg>
